<?xml version="1.0" encoding="iso-8859-1"?>
<!-- Generator: Adobe Illustrator 19.0.0, SVG Export Plug-In . SVG Version: 6.00 Build 0)  -->
<svg version="1.1" id="Capa_1" xmlns="http://www.w3.org/2000/svg" xmlns:xlink="http://www.w3.org/1999/xlink" x="0px" y="0px"
	 viewBox="0 0 512 512" style="enable-background:new 0 0 512 512;" xml:space="preserve">
<g>
	<g>
		<g>
			<path d="M486.4,38.4H25.6C11.468,38.415,0.015,49.868,0,64v307.2c0.015,14.132,11.468,25.585,25.6,25.6h86.043
				c7.065,43.697,67.917,76.8,144.357,76.8s137.293-33.103,144.357-76.8H486.4c14.132-0.015,25.585-11.468,25.6-25.6V64
				C511.985,49.868,500.532,38.415,486.4,38.4z M17.067,64c0.006-4.71,3.823-8.527,8.533-8.533h136.533v153.6H17.067V64z
				 M256,456.533c-69.383,0-128-31.262-128-68.267S186.617,320,256,320s128,31.262,128,68.267S325.383,456.533,256,456.533z
				 M494.933,371.2c-0.006,4.71-3.823,8.527-8.533,8.533h-86.043c-7.064-43.697-67.917-76.8-144.357-76.8
				s-137.293,33.103-144.357,76.8H25.6c-4.71-0.006-8.527-3.823-8.533-8.533V226.133h477.867V371.2z M494.933,209.067H179.2v-153.6
				h307.2c4.71,0.006,8.527,3.823,8.533,8.533V209.067z"/>
			<path d="M146.275,112.371l-33.899-4.858L97.234,77.25c-1.603-2.69-4.502-4.337-7.633-4.337s-6.031,1.648-7.633,4.337
				l-15.142,30.263l-33.9,4.858c-3.229,0.462-5.912,2.724-6.912,5.828c-1.001,3.104-0.143,6.508,2.208,8.768l24.463,23.525
				l-5.771,33.183c-0.555,3.195,0.75,6.429,3.366,8.345s6.092,2.185,8.972,0.692l30.35-15.742l30.35,15.742
				c2.879,1.492,6.355,1.224,8.972-0.692s3.92-5.15,3.366-8.345l-5.771-33.183l24.463-23.525c2.352-2.26,3.209-5.663,2.208-8.768
				C152.187,115.095,149.504,112.833,146.275,112.371z M111.421,141.333c-2.045,1.965-2.98,4.818-2.496,7.613l3.596,20.688
				l-18.992-9.85c-2.464-1.278-5.395-1.278-7.858,0l-18.991,9.85l3.596-20.688c0.484-2.795-0.451-5.647-2.496-7.613l-15.13-14.55
				l21.017-3.013c2.771-0.396,5.172-2.126,6.425-4.629l9.508-19.004l9.508,19.004c1.253,2.503,3.654,4.233,6.425,4.629l21.017,3.012
				L111.421,141.333z"/>
			<path d="M213.333,362.667h8.533c4.71,0.006,8.527,3.823,8.533,8.533c0,4.713,3.82,8.533,8.533,8.533s8.533-3.82,8.533-8.533
				c-0.015-14.132-11.468-25.585-25.6-25.6h-8.533c-14.132,0.015-25.585,11.468-25.6,25.6v34.133
				c0.015,14.132,11.468,25.585,25.6,25.6h8.533c14.132-0.015,25.585-11.468,25.6-25.6c0-4.713-3.82-8.533-8.533-8.533
				s-8.533,3.821-8.533,8.533c-0.006,4.71-3.823,8.527-8.533,8.533h-8.533c-4.71-0.006-8.527-3.823-8.533-8.533V371.2
				C204.806,366.49,208.623,362.673,213.333,362.667z"/>
			<path d="M307.2,413.867h-25.6v-59.733c0-4.713-3.821-8.533-8.533-8.533c-4.713,0-8.533,3.82-8.533,8.533V422.4
				c0,4.713,3.821,8.533,8.533,8.533H307.2c4.713,0,8.533-3.82,8.533-8.533S311.913,413.867,307.2,413.867z"/>
		</g>
	</g>
</g>
<g>
</g>
<g>
</g>
<g>
</g>
<g>
</g>
<g>
</g>
<g>
</g>
<g>
</g>
<g>
</g>
<g>
</g>
<g>
</g>
<g>
</g>
<g>
</g>
<g>
</g>
<g>
</g>
<g>
</g>
</svg>
