<?xml version="1.0" encoding="iso-8859-1"?>
<!-- Generator: Adobe Illustrator 19.0.0, SVG Export Plug-In . SVG Version: 6.00 Build 0)  -->
<svg version="1.1" id="Capa_1" xmlns="http://www.w3.org/2000/svg" xmlns:xlink="http://www.w3.org/1999/xlink" x="0px" y="0px"
	 viewBox="0 0 512 512" style="enable-background:new 0 0 512 512;" xml:space="preserve">
<g>
	<g>
		<path d="M494.622,135.658L274.027,4.935C268.58,1.706,262.346,0,256,0c-6.346,0-12.58,1.706-18.027,4.935L17.376,135.658
			C6.658,142.01,0,153.686,0,166.128c0,19.521,15.882,35.404,35.404,35.404v269.617c0,22.526,18.325,40.851,40.851,40.851h359.489
			c22.526,0,40.851-18.325,40.851-40.851V201.532c19.522,0,35.404-15.883,35.404-35.404C512,153.686,505.342,142.01,494.622,135.658
			z M394.894,495.66H280.511v-57.191c0-4.512-3.657-8.17-8.17-8.17c-4.513,0-8.17,3.658-8.17,8.17v57.191H76.255
			c-13.515,0-24.511-10.995-24.511-24.511v-89.872h49.021v57.191c0,16.519,13.439,29.957,29.957,29.957
			c8.576,0,16.321-3.622,21.787-9.416c5.466,5.794,13.212,9.416,21.787,9.416c8.575,0,16.321-3.622,21.787-9.416
			c5.466,5.794,13.212,9.416,21.787,9.416c16.518,0,29.957-13.438,29.957-29.957v-57.191h16.34v24.511c0,4.512,3.657,8.17,8.17,8.17
			c4.513,0,8.17-3.658,8.17-8.17v-65.362c0-31.536,25.657-57.191,57.192-57.191s57.191,25.656,57.191,57.191V495.66z
			 M166.128,348.596v49.021h-49.021v-49.021H166.128z M117.106,332.255v-40.851c0-4.506,3.665-8.17,8.17-8.17h40.851v49.021H117.106
			z M173.327,413.957c0.319,0.038,0.642,0.063,0.971,0.063s0.651-0.025,0.971-0.063h56.221v24.511
			c0,7.509-6.108,13.617-13.617,13.617s-13.617-6.108-13.617-13.617c0-4.512-3.657-8.17-8.17-8.17c-4.513,0-8.17,3.658-8.17,8.17
			c0,7.509-6.108,13.617-13.617,13.617c-7.509,0-13.617-6.108-13.617-13.617c0-4.512-3.657-8.17-8.17-8.17
			c-4.513,0-8.17,3.658-8.17,8.17c0,7.509-6.108,13.617-13.617,13.617c-7.509,0-13.617-6.108-13.617-13.617v-24.511H173.327z
			 M231.489,348.596v49.021h-49.021v-49.021H231.489z M182.468,332.255v-49.021h40.851c4.506,0,8.17,3.665,8.17,8.17v40.851H182.468
			z M460.255,471.149c0,13.516-10.996,24.511-24.511,24.511h-24.511V381.277h49.021V471.149z M476.596,185.192
			c-1.934,0-3.844-0.304-5.671-0.874c-0.048-0.015-0.095-0.029-0.143-0.045c-1.35-0.432-2.655-1.007-3.882-1.733L260.165,60.037
			c-2.568-1.522-5.762-1.522-8.329,0l-89.31,52.922c-3.881,2.3-5.164,7.312-2.864,11.193c2.3,3.882,7.312,5.166,11.193,2.864
			L256,76.562l202.569,120.036c0.552,0.328,1.119,0.628,1.686,0.924v167.414h-49.021v-24.511c0-40.546-32.986-73.532-73.532-73.532
			c-40.546,0-73.532,32.986-73.532,73.532v24.511h-16.34v-23.54c0.038-0.319,0.063-0.642,0.063-0.971s-0.025-0.651-0.063-0.971
			v-48.051c0-13.516-10.996-24.511-24.511-24.511h-48.051c-0.319-0.038-0.642-0.063-0.971-0.063s-0.651,0.025-0.971,0.063h-48.051
			c-13.515,0-24.511,10.995-24.511,24.511v48.051c-0.038,0.319-0.063,0.642-0.063,0.971s0.025,0.651,0.063,0.971v23.54H51.745
			V197.522c0.568-0.296,1.134-0.597,1.686-0.924l89.308-52.921c3.881-2.3,5.164-7.312,2.864-11.193
			c-2.299-3.881-7.311-5.165-11.193-2.864l-89.308,52.921c-1.228,0.728-2.534,1.302-3.885,1.734
			c-0.047,0.014-0.093,0.028-0.139,0.044c-1.828,0.569-3.739,0.873-5.673,0.873c-10.511,0-19.064-8.553-19.064-19.064
			c0-6.698,3.589-12.987,9.367-16.412L246.304,18.992c2.927-1.734,6.28-2.651,9.696-2.651c3.416,0,6.769,0.917,9.696,2.651
			l220.595,130.723c5.779,3.425,9.368,9.714,9.368,16.412C495.66,176.639,487.107,185.192,476.596,185.192z"/>
	</g>
</g>
<g>
	<g>
		<path d="M256,119.953c-34.539,0-62.638,28.099-62.638,62.638s28.099,62.638,62.638,62.638s62.638-28.099,62.638-62.638
			S290.539,119.953,256,119.953z M256,228.889c-25.529,0-46.298-20.769-46.298-46.298s20.769-46.298,46.298-46.298
			s46.298,20.769,46.298,46.298C302.298,208.12,281.529,228.889,256,228.889z"/>
	</g>
</g>
<g>
	<g>
		<path d="M337.702,343.149c-16.518,0-29.957,13.438-29.957,29.957s13.439,29.957,29.957,29.957
			c16.518,0,29.957-13.438,29.957-29.957S354.22,343.149,337.702,343.149z M337.702,386.723c-7.509,0-13.617-6.108-13.617-13.617
			s6.108-13.617,13.617-13.617s13.617,6.108,13.617,13.617S345.211,386.723,337.702,386.723z"/>
	</g>
</g>
<g>
</g>
<g>
</g>
<g>
</g>
<g>
</g>
<g>
</g>
<g>
</g>
<g>
</g>
<g>
</g>
<g>
</g>
<g>
</g>
<g>
</g>
<g>
</g>
<g>
</g>
<g>
</g>
<g>
</g>
</svg>
