<svg id="Solid" height="512" viewBox="0 0 512 512" width="512" xmlns="http://www.w3.org/2000/svg"><path d="m120 93.8c-5.093 5.9-12.864 10.2-24 10.2v40h48v-40c-11.136 0-18.907-4.306-24-10.2z"/><path d="m72 93.8c-5.093 5.9-12.864 10.2-24 10.2a33.1 33.1 0 0 1 -16-3.765v59.765h48v-59.762a28.377 28.377 0 0 1 -8-6.438z"/><path d="m128 32v40a22.084 22.084 0 0 0 2.347 8.794c2.613 4.916 6.953 7.206 13.653 7.206s11.04-2.29 13.653-7.206a22.042 22.042 0 0 0 2.317-8.306l-6.748-40.488z"/><path d="m109.653 80.794a22.059 22.059 0 0 0 2.347-8.848v-39.946h-25.222l-6.75 40.5a22.086 22.086 0 0 0 2.319 8.3c2.613 4.91 6.953 7.2 13.653 7.2s11.04-2.29 13.653-7.206z"/><path d="m96 168v24h48v-24-8h-48z"/><path d="m160 176h48v16h-48z"/><path d="m168 93.8a28.377 28.377 0 0 1 -8 6.442v59.758h48v-59.765a33.1 33.1 0 0 1 -16 3.765c-11.136 0-18.907-4.306-24-10.2z"/><path d="m48 88c6.7 0 11.04-2.29 13.653-7.206a22.059 22.059 0 0 0 2.347-8.848v-.019a8.034 8.034 0 0 1 .178-1.661l6.378-38.266h-24.79l-13.687 41.062a21.907 21.907 0 0 0 2.268 7.732c2.613 4.916 6.953 7.206 13.653 7.206z"/><path d="m175.883 70.686a8.025 8.025 0 0 1 .117 1.314 22.084 22.084 0 0 0 2.347 8.794c2.613 4.916 6.953 7.206 13.653 7.206s11.04-2.29 13.653-7.206a21.887 21.887 0 0 0 2.267-7.736l-13.686-41.058h-24.79l6.448 38.685z"/><path d="m32 176h48v16h-48z"/><path d="m440 328a40.045 40.045 0 0 0 -40 40c0 41.31 28.722 68.776 39.985 77.957 11.244-9.213 40.015-36.815 40.015-77.957a40.045 40.045 0 0 0 -40-40zm0 64a24 24 0 1 1 24-24 24.028 24.028 0 0 1 -24 24z"/><circle cx="440" cy="368" r="8"/><path d="m440 480h-344a80 80 0 0 1 0-160h208a64 64 0 0 0 0-128h-72a8 8 0 0 1 0-16h72a80 80 0 0 1 0 160h-208a64 64 0 0 0 0 128h344a8 8 0 0 1 0 16z"/></svg>