<?xml version="1.0" encoding="utf-8"?>
<!-- Generator: Adobe Illustrator 23.0.4, SVG Export Plug-In . SVG Version: 6.00 Build 0)  -->
<svg version="1.1" id="Capa_1" xmlns="http://www.w3.org/2000/svg" xmlns:xlink="http://www.w3.org/1999/xlink" x="0px" y="0px"
	 viewBox="0 0 1057.3 824.3" style="enable-background:new 0 0 1057.3 824.3;" xml:space="preserve">
<style type="text/css">
	.st0{fill:#F79720;}
	.st1{fill:#FED104;}
</style>
<title>Escuela de Agronomía y Veterinaria</title>
<g id="rb87Wx.tif">
	
		<image style="overflow:visible;" width="256" height="100" id="Layer_0_1_" xlink:href="38317BD271080A18.png"  transform="matrix(1 0 0 1 -22.7887 -144.42)">
	</image>
</g>
<g id="Layer_2">
	<g id="Layer_1-2">
		<path class="st0" d="M925.6,401.9H412.3c-21.5-0.1-39,17.3-39.1,38.9c0,0.1,0,0.2,0,0.2v267.7h-15l-14.9-363.6
			c-0.8-11.8-8.8-22-20.1-25.6v-12.9c9.2-2.8,16.6-9.5,20.3-18.3l5.6,1.3l-0.2,1.1c-1.4,7,0.2,14.3,4.3,20.1
			c4,5.7,10.1,9.6,16.9,10.6l169.9,26.8c1.3,0.2,2.6,0.3,4,0.3c12.2-0.1,22.6-8.8,24.8-20.8c2.7-13.4-5.6-26.5-18.8-29.9l-167-41.7
			c-6.7-1.7-13.9-0.5-19.7,3.2c-4.6,3-8.2,7.4-10.2,12.6l-7.5-1.8c-1.9-12.1-10.6-22.1-22.4-25.7v-6.9c6.3-0.4,12.1-3.2,16.5-7.7
			c4.9-5.2,7.5-12.1,7.2-19.3l-7.4-176c-0.7-14-12.7-24.7-26.6-23.9c-12.9,0.7-23.2,11-23.9,23.9l-7.4,176
			c-0.3,7.1,2.3,14.1,7.2,19.3c4.3,4.5,10.2,7.3,16.5,7.7v6.9c-11.5,3.5-20.1,13.2-22.3,25l-10.4,2.4c-2-5.2-5.5-9.6-10.2-12.6
			c-5.8-3.8-13-4.9-19.7-3.2l-167,41.7c-13.2,3.4-21.5,16.5-18.8,29.9c2.2,12,12.6,20.7,24.8,20.8c1.3,0,2.7-0.1,4-0.3l169.8-26.8
			c6.9-1.1,13-4.9,16.9-10.6c4.1-5.9,5.6-13.1,4.3-20.2l-0.2-1.2l8.2-1.9c3.6,9.1,11.2,16.1,20.5,18.9v13.1
			c-10.9,4-18.4,14-19.1,25.6l-14.8,363.3H100c-4.9,0-8.9,4-8.9,9c0,4.9,4,8.9,8.9,8.9h273.2v48.6c0.1,21.6,17.5,39,39.1,39.1h513.3
			c21.6-0.1,39-17.5,39.1-39.1V441C964.6,419.4,947.1,402,925.6,401.9z M366.7,294.3l2.8-14.2c0.4-2.2,1.7-4.1,3.6-5.3
			c1.2-0.8,2.6-1.2,4-1.2c0.6,0,1.2,0.1,1.8,0.2l167,41.7c4,1.1,6.4,5.1,5.6,9.1l0,0c-0.7,3.9-4.4,6.7-8.3,6.2l-169.9-26.8
			c-2.1-0.3-3.9-1.5-5.1-3.2C366.7,298.8,366.2,296.5,366.7,294.3L366.7,294.3z M257.9,300.7c-1.2,1.7-3,2.9-5.1,3.2L83,330.8
			c-4,0.5-7.6-2.2-8.3-6.2l0,0c-0.9-4,1.6-8.1,5.6-9.2l167-41.7c0.6-0.2,1.2-0.2,1.8-0.2c1.4,0,2.8,0.4,4,1.2
			c1.9,1.2,3.2,3.1,3.6,5.3l2.7,14.2C259.8,296.5,259.3,298.9,257.9,300.7z M301.9,217.8c-1.6-1.6-2.4-3.9-2.3-6.1l7.4-176
			c-0.1-4.1,3.1-7.5,7.1-7.7s7.5,3.1,7.7,7.1c0,0.2,0,0.3,0,0.5l7.4,176c0.1,2.3-0.7,4.5-2.3,6.1c-1.4,1.5-3.4,2.4-5.4,2.4h-14.1
			C305.3,220.1,303.3,219.3,301.9,217.8z M300.4,275.7c0-8,6.2-14.5,13.9-14.5c7.7,0,13.9,6.5,13.9,14.5s-6.2,14.5-13.9,14.5
			C306.7,290.2,300.4,283.7,300.4,275.7z M289.4,708.7l14.8-362.4c0.1-5.9,4.9-10.6,10.8-10.5c5.7,0.1,10.3,4.6,10.5,10.2
			l14.8,362.7L289.4,708.7z M952.9,773.9c0,15.3-12.4,27.7-27.7,27.7H411.8c-15.3,0-27.7-12.4-27.7-27.7V439.6
			c0-15.3,12.4-27.7,27.7-27.7h513.4c15.3,0,27.7,12.4,27.7,27.7L952.9,773.9z"/>
		<path class="st0" d="M930,429H467.5c-3.1,0-5.6,2.4-5.7,5.5c0,0.1,0,0.1,0,0.2v346.8c0,3.1,2.6,5.7,5.7,5.7H930
			c3.1,0,5.7-2.6,5.7-5.7V434.7C935.7,431.6,933.2,429,930,429z M924,775.4H472.7V439.9H924V775.4z"/>
		<path class="st0" d="M422.3,580.1c-15.3,0-27.7,12.4-27.7,27.7c0,15.3,12.4,27.7,27.7,27.7c15.3,0,27.7-12.4,27.7-27.7
			c0,0,0,0,0,0C450,592.5,437.6,580.1,422.3,580.1z M422.3,624.8c-9.3,0.1-16.9-7.3-17.1-16.6c0-0.1,0-0.3,0-0.4
			c0-9.4,7.6-17.1,17.1-17.1c9.4,0,17.1,7.6,17.1,17.1S431.7,624.8,422.3,624.8L422.3,624.8z"/>
		<path class="st1" d="M494,726.6h179.1c2.9,0,5.3-2.4,5.3-5.3l0,0v-10.5c0.1-30.8-20.5-57.8-50.2-66c11.9-11.8,18.5-27.9,18.5-44.7
			c-0.1-3.7-0.4-7.5-1.2-11.1c8.4-2.2,13.4-10.9,11.2-19.3c-1.4-5.3-5.5-9.5-10.8-11.1c-3.8-22.8-19.6-41.7-41.3-49.5V500
			c0-2.9-2.3-5.3-5.2-5.3c0,0,0,0,0,0h-31.7c-2.9,0-5.3,2.3-5.3,5.3c0,0,0,0,0,0l0,0v9.1c-21.7,7.8-37.6,26.7-41.3,49.5
			c-8.4,2.4-13.2,11.2-10.7,19.5c1.5,5.3,5.7,9.4,11.1,10.8c-0.7,3.7-1.1,7.4-1.1,11.1c0,16.8,6.7,32.8,18.5,44.7
			c-29.7,8.2-50.2,35.2-50.1,66v10.5C488.6,724.2,491,726.6,494,726.6C493.9,726.6,493.9,726.6,494,726.6z M520.3,573.8
			c0-3,2.5-5.3,5.4-5.3c0,0,0,0,0,0h0.1c2.7,0,5-2.1,5.2-4.8c1.5-15.4,9.7-29.3,22.5-38.1l9.5,18.9c1.3,2.6,4.5,3.7,7.1,2.4
			c2.6-1.3,3.7-4.5,2.4-7.1l-9.7-19.4c2.1-0.9,4.2-1.7,6.4-2.4c2.3-0.6,3.8-2.7,3.8-5.1v-7.7h21.1v7.7c0,2.4,1.6,4.4,3.8,5.1
			c2.2,0.7,4.3,1.4,6.4,2.4l-9.7,19.4c-1.3,2.6-0.2,5.8,2.4,7.1c2.6,1.3,5.8,0.2,7.1-2.4l9.5-18.9c12.7,8.8,20.9,22.7,22.4,38.1
			c0.2,2.7,2.5,4.8,5.2,4.8h0.3c2.9-0.1,5.4,2.1,5.5,5.1c0.1,2.9-2.1,5.4-5.1,5.5c-0.1,0-0.3,0-0.4,0H525.6
			C522.7,579,520.3,576.7,520.3,573.8z M530.8,600.1c0-3.5,0.5-7.1,1.2-10.5H635c0.8,3.5,1.2,7,1.2,10.5c0,29.1-23.6,52.7-52.7,52.7
			S530.8,629.2,530.8,600.1L530.8,600.1z M499.2,710.8c-0.1-29.1,21.6-53.7,50.4-57.3c20.6,13.2,47.1,13.2,67.7,0
			c28.9,3.6,50.5,28.2,50.4,57.3v5.3H499.2L499.2,710.8z"/>
		<path class="st1" d="M721.6,726.6h179.1c2.9,0,5.3-2.4,5.3-5.3l0,0l0,0v-10.5c0.1-28.1-17.1-53.4-43.3-63.7
			c21.7-1.8,36.2-10.7,36.9-11.1c2-1.3,2.6-4,1.4-6c0,0-0.1-0.1-0.1-0.1l-27.6-40.5c0-0.1,0-0.3-0.1-0.4
			c8.4-2.3,13.4-10.9,11.1-19.3c-1.4-5.3-5.5-9.5-10.8-11.1c-3.8-22.8-19.6-41.7-41.3-49.5V500c0-2.9-2.4-5.3-5.3-5.3h-31.7
			c-2.9,0-5.3,2.4-5.3,5.3l0,0l0,0v9.1c-21.7,7.8-37.6,26.7-41.3,49.5c-8.4,2.4-13.2,11.2-10.7,19.5c1.5,5.3,5.7,9.3,10.9,10.8
			l-27.9,40.9c-0.7,1-0.9,2.2-0.7,3.3c0.2,1.2,0.9,2.2,1.9,2.8c0.7,0.5,15.3,9.4,37.2,11.1c-26.1,10.3-43.3,35.6-43.2,63.6v10.5
			C716.3,724.2,718.7,726.6,721.6,726.6C721.6,726.6,721.6,726.6,721.6,726.6z M874.2,606l16.8,24.7c-9.3,4.3-19.3,7-29.6,7.7
			C868.7,629,873.1,617.8,874.2,606z M762.2,608.9c20,0,41.5-13.4,48.8-18.5c7.4,5,28.8,18.5,48.8,18.5c1.1,0,2.2-0.1,3.3-0.1
			c-4.8,28.7-31.9,48.1-60.6,43.3c-22.2-3.7-39.6-21.1-43.3-43.3C760.2,608.9,761.2,608.9,762.2,608.9z M758.5,600
			c0.1-3.5,0.5-7,1.2-10.4h36.1C785.6,595.2,771,601.5,758.5,600z M826.3,589.6h36.4c0.8,3.4,1.2,6.9,1.2,10.4
			C851.3,601.6,836.5,595.3,826.3,589.6z M748,573.8c0-3,2.5-5.3,5.4-5.3c0,0,0,0,0,0h0.1c2.7,0,5-2.1,5.3-4.8
			c1.5-15.4,9.7-29.3,22.4-38.1l9.5,18.9c1.3,2.6,4.5,3.7,7.1,2.4c2.6-1.3,3.7-4.5,2.4-7.1l-9.7-19.4c2.1-0.9,4.2-1.7,6.4-2.4
			c2.3-0.6,3.8-2.7,3.8-5.1v-7.7h21.1v7.7c0,2.4,1.6,4.4,3.8,5.1c2.2,0.7,4.3,1.4,6.4,2.4l-9.7,19.4c-1.3,2.6-0.2,5.8,2.4,7.1
			c2.6,1.3,5.8,0.2,7.1-2.4l9.5-18.9c12.7,8.8,20.9,22.7,22.5,38.1c0.2,2.7,2.5,4.8,5.2,4.8h0.3c2.9-0.1,5.4,2.1,5.5,5.1
			c0.1,2.9-2.1,5.4-5,5.5c-0.1,0-0.3,0-0.4,0H753.3C750.4,579,748,576.7,748,573.8z M731.1,630.8l17.2-25.2c1,12,5.5,23.4,12.8,33
			C750.6,637.7,740.5,635.1,731.1,630.8L731.1,630.8z M726.9,710.8c-0.1-29.1,21.6-53.7,50.4-57.3c20.6,13.2,47.1,13.2,67.7,0
			c28.9,3.6,50.5,28.2,50.4,57.3v5.3H726.9L726.9,710.8z"/>
	</g>
</g>
</svg>
