<?xml version="1.0" encoding="utf-8"?>
<!-- Generator: Adobe Illustrator 23.0.4, SVG Export Plug-In . SVG Version: 6.00 Build 0)  -->
<svg version="1.1" id="Capa_1" xmlns="http://www.w3.org/2000/svg" xmlns:xlink="http://www.w3.org/1999/xlink" x="0px" y="0px"
	 viewBox="0 0 1057.3 824.3" style="enable-background:new 0 0 1057.3 824.3;" xml:space="preserve">
<style type="text/css">
	.st0{fill:#24998E;}
	.st1{fill:#6FC070;}
</style>
<title>Escuela de Agronomía y Veterinaria</title>
<g id="Layer_2">
	<g id="Layer_1-2">
		<path class="st0" d="M197.5,664.5c1.9,5.1,6.8,8.6,12.3,8.6h26.1c7.2,0,13-5.8,13-13c0-1.1-0.1-2.2-0.4-3.3l-23.4-89.5l38.3-56.3
			h92l-25.1,146.9c-1.2,7.1,3.5,13.8,10.6,15c0.7,0.1,1.4,0.2,2.2,0.2h29.1c5.6,0,10.5-3.5,12.3-8.8l33.8-96.8L429.8,678
			c0.1,3.1,1.4,6.1,3.6,8.3c2.5,2.5,6,4,9.5,4h30c7.3,0,13.2-5.8,13.2-13.1c0,0,0,0,0-0.1l4.6-112.2l16.7-38.4c0.3-0.6,0.9-1,1.6-1
			l67.4,2.5c0.8,1.3,1.6,2.5,2.3,3.8l1.4,2.2c7.3,14.4,17.3,27.2,29.4,37.8c12.8,12.6,27.6,22.9,43.9,30.4
			c6.8,5.6,16.4,6.5,24.1,2.2l11-6.2c7.8-4.4,11.9-13.3,10.4-22.1l-10.7-61.1c-0.4-2.1-0.1-4.3,0.7-6.2l1.4-3.3
			c2.5-6.1,2.1-13-1.2-18.8l-4.5-7.8l12.5-21.1c3.8-6.4,1.7-14.8-4.7-18.6c-2.1-1.3-4.6-1.9-7-1.9h-0.2c-14.1,1.6-27.6,6.9-39,15.4
			c-4,3-4.9,8.7-1.9,12.7c1.4,2,3.6,3.2,6,3.6c2.4,0.4,4.8-0.2,6.8-1.7c5.8-4.2,12.2-7.4,18.9-9.7l-9.8,16.5c-1.7,2.8-1.7,6.4,0,9.2
			l7.2,12.4c0.5,0.8,0.5,1.8,0.2,2.7l-1.4,3.3c-2.1,5.2-2.8,10.8-1.8,16.3l10.7,61.1c0.2,1.3-0.4,2.5-1.5,3.2l-11,6.2
			c-1.2,0.7-2.6,0.5-3.6-0.4c-0.7-0.7-1.5-1.3-2.5-1.7c-15.1-6.9-28.9-16.3-40.7-28c-9.5-9.8-18-20.6-25.1-32.2
			c-6.8-12.6-10.3-26.7-10.3-41c0-5-4-9.1-9-9.2h-0.1c-5,0-9,4-9.1,9c-0.1,8.3,0.9,16.6,2.8,24.6l-61.5-2.3c-0.4,0-0.8,0-1.1,0
			c-7.8,0-14.8,4.7-17.8,11.9l-17.4,39.9c-0.5,1-0.7,2.1-0.8,3.3l-4.4,109.6h-20.7l-13.6-131.8c-0.2-1.6-0.8-3.2-1.8-4.5l-24.3-32.3
			c-5.7-6.8-14-10.7-22.8-10.7H225c-7.7,0-15.1,2.7-21,7.6l-81.3,67.2c-2.1,1.7-3.3,4.3-3.3,7v97.5H96.9V537.3
			c0-3.1,0.9-6.2,2.5-8.9l32.8-54.1c1.2-1.9,1.6-4.2,1.2-6.4l-20-105.3c-0.5-2.6-0.5-5.4,0.1-8l15.5-67.4c11.7-3.5,24-4.5,36.1-2.8
			c0.4,0.1,0.9,0.1,1.3,0.1c45.5,0.1,167,0.1,239.6,0c24.9,0,44.5,0,54.1,0c10.1-0.8,19.9,3.8,25.8,12l129.9,153.3
			c1.6,1.9,3.9,3.1,6.4,3.2l10.4,0.6h0.6c3.6,0,6.9-2.2,8.3-5.5c2.5-5.8,6.4-11,11.4-14.9c1.7,1.5,3.8,2.3,6.1,2.3
			c5,0,9.1-4.1,9.1-9.1c0-7.5-6.1-13.6-13.6-13.6c-2.5,0-5,0.7-7.2,2.1c-8.1,5-14.9,12-19.7,20.2h-0.6L499.7,284.7
			c-9.4-12.7-24.7-19.6-40.5-18.4H167.1c-35.8-4.6-71.5,9.3-94.7,36.9c-20.1,25.6-22.8,54.9-22.7,80.2c0.1,8.5-0.4,17-1.4,25.4
			c-1.6,1.1-3.1,2.3-4.6,3.4l-0.6,0.5c-9.3,7.4-16.2,17.4-20.1,28.6c-2.8,8.5-3.5,17.4-2.2,26.2c0.4,3.4,1.1,6.7,2,10l0.1,0.3
			c0.5,1.9,0.9,3.9,1.2,5.8c0.5,4.3,3.3,8,7.3,9.6c1.3,0.5,2.6,0.7,4,0.7c4.7-0.5,9.2-2.6,12.5-5.9c1.9-1.5,3.9-2.7,6.1-3.8
			c3.2-1.5,6.2-3.4,9-5.6c10.6-9.7,17.2-22.9,18.7-37.1c0.6-5-3-9.5-8-10.1c-4.8-0.6-9.2,2.7-10,7.5v0.2
			c-0.9,9.7-5.3,18.8-12.3,25.6c-1.8,1.3-3.7,2.5-5.7,3.4c-1.6,0.9-3.6,1.9-5.6,3.2c-0.5-1.9-0.8-3.8-1.1-5.7
			c-1-6.1-0.6-12.3,1.2-18.1c2.6-7.7,7.3-14.6,13.5-19.9c2.7-2.1,5.3-4,7.9-5.7c2.1-1.4,3.6-3.6,4.1-6c1.8-10.7,2.5-21.5,2.3-32.4
			c0-22.2,2.2-47.8,18.8-68.9c6-7.4,13.2-13.6,21.5-18.3l-12.5,54.6c-1.1,5-1.2,10.3-0.2,15.3l19.3,101.9l-31,51.1
			c-3.4,5.5-5.1,11.9-5.1,18.3v138.4c0,8,6.5,14.5,14.6,14.5H123c8,0,14.5-6.5,14.6-14.5v-96.9l22.2-18.4L197.5,664.5z M385,511
			c3.3,0,6.5,1.4,8.7,3.9l16.3,21.7c-0.1,0.1-0.1,0.2-0.1,0.3l-41.2,118h-19.3L373.9,511H385z M215.6,514.4c2.7-2.2,6-3.4,9.4-3.4
			h16.4l-33.7,49.5c-1.5,2.2-1.9,4.9-1.3,7.4l22.8,87h-15.8l-38.5-106.5c0-0.1-0.1-0.2-0.1-0.3L215.6,514.4z"/>
		<path class="st1" d="M990.4,260.8c11-42.2-0.5-87.1-30.6-118.6c3.2-9.6,4.8-19.7,4.8-29.8c0.5-52.9-41.9-96.1-94.7-96.7
			s-96.1,41.9-96.7,94.7c0,0.7,0,1.3,0,2c0,10.1,1.6,20.2,4.8,29.8c-30.1,31.6-41.7,76.5-30.6,118.6c-30.1,31.2-46.9,73-46.8,116.4
			c0,90.1,71.1,163.7,160,168v135.9c0,5.1,4.1,9.2,9.1,9.2c5.1,0,9.2-4.1,9.2-9.1c0,0,0,0,0,0v-136c88.1-5.2,158.2-78.5,158.2-167.9
			C1037.3,333.8,1020.5,292.1,990.4,260.8z M879,526.9v-162l49-49c3.7-3.5,3.8-9.3,0.4-12.9c-3.5-3.7-9.3-3.8-12.9-0.4
			c-0.1,0.1-0.2,0.2-0.4,0.4L879,339V188.4c0-5.1-4.1-9.2-9.1-9.2c-5.1,0-9.2,4.1-9.2,9.1c0,0,0,0,0,0v80l-38-38
			c-3.6-3.6-9.4-3.5-12.9,0c-3.5,3.6-3.5,9.3,0,12.9l50.9,50.9v142.8l-38-38c-3.6-3.6-9.4-3.6-12.9,0c-3.6,3.6-3.6,9.4,0,12.9
			c0,0,0,0,0,0l50.9,50.9v64c-78.9-4.3-141.8-69.7-141.8-149.7c-0.1-40.4,16.2-79.1,45.3-107.2l4-3.9l-1.7-5.4
			c-12.1-38.9-1-81.4,28.5-109.5l4.5-4.3l-2.3-5.8c-3.7-9.1-5.6-18.9-5.6-28.7C791,69.6,825.3,34.6,868,34.1
			c42.7-0.5,77.8,33.8,78.3,76.5c0,0.6,0,1.2,0,1.8c0,9.9-1.9,19.6-5.6,28.7l-2.3,5.8l4.5,4.3c29.5,28.1,40.6,70.5,28.5,109.5
			l-1.7,5.4l4,3.9c29,28.1,45.3,66.9,45.2,107.3C1018.8,456.7,957,521.7,879,526.9z"/>
		<path class="st0" d="M544.6,765.6c0-5-4-9-9-9h-369c-5,0-9,4-9,9s4,9,9,9h369C540.6,774.6,544.6,770.6,544.6,765.6z"/>
		<path class="st0" d="M890.6,756.6h-60c-5,0-9,4-9,9s4,9,9,9h60c5,0,9-4,9-9S895.6,756.6,890.6,756.6L890.6,756.6z"/>
		<path class="st1" d="M790.6,756.6h-213c-5,0-9,4-9,9s4,9,9,9h213c5,0,9-4,9-9S795.6,756.6,790.6,756.6z"/>
		<path class="st1" d="M617.6,790.6h-369c-5,0-9,4-9,9s4,9,9,9h369c5,0,9-4,9-9S622.6,790.6,617.6,790.6z"/>
		<path class="st0" d="M746.6,790.6h-89c-5,0-9,4-9,9s4,9,9,9h89c5,0,9-4,9-9S751.6,790.6,746.6,790.6z"/>
	</g>
</g>
<g id="fTFtj1.tif">
	
		<image style="overflow:visible;" width="276" height="101" id="Layer_0_1_" xlink:href="38183AAC42DD0D3F.png"  transform="matrix(1 0 0 1 19.6341 -128.8452)">
	</image>
</g>
</svg>
