<?xml version="1.0" encoding="utf-8"?>
<!-- Generator: Adobe Illustrator 23.0.4, SVG Export Plug-In . SVG Version: 6.00 Build 0)  -->
<svg version="1.1" id="Capa_1" xmlns="http://www.w3.org/2000/svg" xmlns:xlink="http://www.w3.org/1999/xlink" x="0px" y="0px"
	 viewBox="0 0 1057.3 824.3" style="enable-background:new 0 0 1057.3 824.3;" xml:space="preserve">
<style type="text/css">
	.st0{fill:#34D0CE;}
	.st1{fill:#192980;}
</style>
<title>Escuela de Agronomía y Veterinaria</title>
<g id="GI3b3L.tif">
	
		<image style="overflow:visible;" width="259" height="69" id="Layer_0_1_" xlink:href="3839E6DF2B165E63.png"  transform="matrix(1 0 0 1 -43.6307 -139.9911)">
	</image>
</g>
<g id="Layer_2">
	<g id="Layer_1-2">
		<path class="st0" d="M500.6,178.8H445v-55.6c0-7.8-6.3-14.1-14-14.1h-59.8c-7.8,0-14.1,6.3-14.1,14.1v55.6h-55.6
			c-7.8,0-14.1,6.3-14.1,14.1v59.8c0,7.8,6.3,14.1,14.1,14.1h55.6v55.6c0,7.8,6.3,14.1,14.1,14.1H431c7.8,0,14.1-6.3,14.1-14.1
			v-55.6h55.6c7.8,0,14.1-6.3,14.1-14.1v-59.8C514.7,185.1,508.4,178.8,500.6,178.8z M496.7,248.7H427v69.7h-51.9v-69.7h-69.6v-51.9
			h69.6v-69.7H427v69.7h69.7V248.7z"/>
		<path class="st0" d="M819.5,85.8c-73.1-73.1-191.6-73.1-264.7,0L543.6,97l-11.2-11.3c-73.1-73.1-191.6-73.1-264.7,0
			c-72.9,73-72.9,191.7,0,264.7l0,0l275.9,275.9l275.9-275.8C892.6,277.4,892.6,158.9,819.5,85.8L819.5,85.8z M803.7,334.6
			l-260.1,260l-260.1-260c-64.2-64.2-64.2-168.8,0-233c64.3-64.3,168.7-64.3,233,0l13.9,13.9c61.5,64.1,60.5,167.4-2.3,230.3
			l-3.1,4.7c-2.1,5.8,1,12.2,6.8,14.3c1.2,0.4,2.5,0.6,3.7,0.7c1.3,0,2.7-0.3,3.9-0.7l4.5-3c66.6-66.4,73.4-172,15.9-246.3l-1.3-1.7
			l12-12c64.8-63.9,169.1-63.1,233,1.6C866.9,167.5,866.9,270.5,803.7,334.6L803.7,334.6z"/>
		<path class="st1" d="M546.6,685.2c5,0,9-4,9-9s-4-9-9-9l0,0h-129c-5,0-9,4-9,9s4,9,9,9H546.6z"/>
		<path class="st1" d="M372.6,667.2h-60c-5,0-9,4-9,9s4,9,9,9l0,0h60c5,0,9-4,9-9S377.6,667.2,372.6,667.2z"/>
		<path class="st1" d="M756.6,667.2h-168c-5,0-9,4-9,9s4,9,9,9h168c5,0,9-4,9-9S761.6,667.2,756.6,667.2z"/>
		<path class="st1" d="M668.6,701.2h-173c-5,0-9,4-9,9s4,9,9,9h173c5,0,9-4,9-9S673.6,701.2,668.6,701.2z"/>
		<path class="st1" d="M443.6,701.2h-39c-5,0-9,4-9,9s4,9,9,9l0,0h39c5,0,9-4,9-9S448.6,701.2,443.6,701.2z"/>
		<path class="st1" d="M588.6,735.2h-101c-5,0-9,4-9,9s4,9,9,9h101c5,0,9-4,9-9S593.6,735.2,588.6,735.2L588.6,735.2z"/>
	</g>
</g>
</svg>
