<?xml version="1.0" encoding="utf-8"?>
<!-- Generator: Adobe Illustrator 23.0.4, SVG Export Plug-In . SVG Version: 6.00 Build 0)  -->
<svg version="1.1" id="Capa_1" xmlns="http://www.w3.org/2000/svg" xmlns:xlink="http://www.w3.org/1999/xlink" x="0px" y="0px"
	 viewBox="0 0 1057.3 824.3" style="enable-background:new 0 0 1057.3 824.3;" xml:space="preserve">
<style type="text/css">
	.st0{fill:#2C2D6E;}
	.st1{fill:#CC3265;}
</style>
<title>Escuela de Agronomía y Veterinaria</title>
<g id="Layer_2">
	<g id="Layer_1-2">
		<path class="st0" d="M358.8,740.6h-125c-5.1,0.2-9.1,4.4-8.9,9.5c0.2,4.9,4.1,8.8,8.9,8.9h124.9c5.1-0.2,9.1-4.4,8.9-9.5
			C367.5,744.7,363.6,740.8,358.8,740.6z"/>
		<path class="st0" d="M263.8,465.1h528.6c5.1-0.2,9.1-4.4,8.9-9.5c-0.2-4.9-4.1-8.8-8.9-8.9h-4.1c-10.2-12.1-16.2-27.2-17-43.1
			c-0.9-18.4,4.6-35.6,15.4-49.1h2.8c5.1-0.2,9.1-4.4,8.9-9.5c-0.2-4.9-4.1-8.8-8.9-8.9H263.8c-35.7,0.4-64.2,29.7-63.8,65.4
			C200.5,436.3,228.8,464.6,263.8,465.1L263.8,465.1z M263.8,354.4h500.7c-8.5,15.2-12.6,32.6-11.6,50c0.8,14.9,5.2,29.4,12.8,42.2
			H263.8c-25.4-0.4-45.8-21.3-45.4-46.8C218.8,374.9,238.9,354.8,263.8,354.4L263.8,354.4z"/>
		<path class="st0" d="M961.7,501.3c-13.6-13.7-32.1-21.3-51.4-21.2L336.2,480c-5.1-0.2-9.4,3.8-9.5,8.9c-0.2,5.1,3.8,9.4,8.9,9.5
			c0.2,0,0.4,0,0.6,0h5.2c12.1,14.2,19.2,32,20.2,50.6c1,21.6-5.5,41.8-18.4,57.6h-3.7c-5.1,0-9.2,4.1-9.3,9.2
			c0,5.1,4.1,9.2,9.2,9.3l0,0h508.2v108.6l36.3-35.5l36.3,35.5V624.4c35.2-4.9,62.6-35.4,62.6-71.8
			C983.1,533.3,975.4,514.9,961.7,501.3z M901.9,689.8l-17.8-17.4l-17.9,17.5V616v-0.1v-0.1V558h35.7V689.8z M920.4,605.7v-47.9
			c4.6-0.5,8.2-4.3,8.2-9c0-5.1-4.1-9.2-9.2-9.2l0,0H766.6c-5.1-0.2-9.4,3.8-9.5,8.9c-0.2,5.1,3.8,9.4,8.9,9.5c0.2,0,0.4,0,0.6,0
			h81.1v48.7H365.9c10.4-17.7,15.4-38,14.2-58.5c-0.9-17.7-6.3-34.8-15.7-49.7l546,0.1c29.8-0.1,54,24.1,54.1,53.9
			c0,0.1,0,0.1,0,0.2C964.4,578.6,945.9,600.8,920.4,605.7z"/>
		<path class="st0" d="M734,539.5H634c-5.1,0.2-9.1,4.4-8.9,9.5c0.2,4.9,4.1,8.8,8.9,8.9h100c5.1-0.2,9.1-4.4,8.9-9.5
			C742.8,543.5,738.9,539.6,734,539.5L734,539.5z"/>
		<path class="st0" d="M802.4,788.3h-6.9c-14.6-16.8-23.2-38.1-24.3-60.3c-1.2-25.7,6.7-49.9,22.2-68.6h5.1c5.1,0.2,9.4-3.8,9.5-8.9
			c0.2-5.1-3.8-9.4-8.9-9.5c-0.2,0-0.4,0-0.6,0H233.9c-45.8,0-82.9,37.1-82.9,82.9s37.1,82.9,82.9,82.9l568.4,0.1
			c5.1,0.2,9.4-3.8,9.5-8.9c0.2-5.1-3.8-9.4-8.9-9.5C802.8,788.3,802.6,788.3,802.4,788.3z M233.9,788.3
			c-35.6-0.4-64.1-29.7-63.7-65.3c0.4-35,28.7-63.2,63.7-63.7h536.8c-24.7,39.6-24,90,1.6,129H233.9z"/>
		<path class="st0" d="M561,740.6H430c-5.1,0.2-9.1,4.4-8.9,9.5c0.2,4.9,4.1,8.8,8.9,8.9h131c5.1-0.2,9.1-4.4,8.9-9.5
			C569.8,744.7,565.9,740.8,561,740.6z"/>
		<path class="st0" d="M674.3,690.7H233.8c-5.1,0.2-9.1,4.4-8.9,9.5c0.2,4.9,4.1,8.8,8.9,8.9h440.5c5.1-0.2,9.1-4.4,8.9-9.5
			C683.1,694.8,679.2,690.9,674.3,690.7z"/>
		<path class="st1" d="M517,131.7c1.1,0.5,27.6,11.7,21.2,52c-0.9,5,2.4,9.8,7.4,10.8c5,0.9,9.8-2.4,10.8-7.4c0-0.2,0.1-0.3,0.1-0.5
			c7.1-44.5-18.3-66.7-32.8-72.2c-4.8-1.8-10.1,0.5-12,5.3S512.2,129.8,517,131.7L517,131.7z"/>
		<path class="st1" d="M416.4,319.1c0.7,0.1,1.4,0.1,2.1,0.1c8.6,0,16.4-4.3,23.4-8.2c1.3-0.7,2.7-1.5,4-2.2
			c-2.5,4.4-2.2,10.2,0.3,11.7c3.2,1.8,6.6-2,8.6-2s5.1,3.2,8.6,2.5s4.2-7.3,1.1-12.2c1.3,0.7,2.7,1.4,4,2.2
			c7,3.9,14.8,8.2,23.4,8.2c0.7,0,1.4,0,2.1-0.1c23-1.9,50.4-45.7,58.2-59c21.9-37.4,31.8-72,29.4-103c-2.9-37-27.9-61.1-52.1-67
			c12.9-23,5.6-49.1-7.5-67.9c-3.5-5-10.4-6.3-15.4-2.8c-0.7,0.5-1.4,1.1-2,1.8C496.3,30.4,487,38.7,477,46
			c-7.9,6-14.2,13.8-18.5,22.7c-11.1-23.9-29.7-32.2-30.9-32.7c-4.6-2.2-10.1-0.3-12.3,4.3c-2.2,4.6-0.3,10.1,4.3,12.3
			c0.3,0.1,0.5,0.2,0.8,0.4c0.3,0.1,26.8,12,27.6,53.7c-0.1-0.1-0.1-0.1-0.2-0.2c-21.8-16.2-40.1-21.2-63.3-17.3
			c-26.3,4.5-55.6,33.7-55.6,68.4c0,33.2,10.7,70.4,29.4,102.3C366,273.5,393.4,317.2,416.4,319.1z M487.9,60.9
			c8.3-6.2,16.2-12.9,23.6-20.2c5.9,11.5,11.5,30.8-3.5,47.5c-15.2,1-27.2,7.3-41.1,17.6C468.2,93.5,472.8,72.2,487.9,60.9z
			 M387.5,107.6c18.1-3.1,31.4,0.7,49.1,13.9c9.4,7,17.2,7.6,20,7.6c2.8,0.1,10.6-0.4,20.1-7.6c14.4-10.7,23.6-14.9,35.2-14.9l0,0
			c3.6,0,7.2,0.4,10.8,1c18.2,3.1,37.9,21.6,40.2,50.9c2.1,27.1-6.9,58.2-26.9,92.2c-19.5,33.2-37.7,49.5-43.8,50
			c-3.8,0.2-9.5-2.8-15-5.9c-6.9-3.8-14-7.7-21.7-7.7c-0.2,0-0.3,0.1-0.5,0.1s-0.3-0.1-0.5-0.1c-7.8,0-14.9,3.9-21.7,7.7
			c-5.5,3-11.2,6.2-15,5.9c-6.1-0.5-24.3-16.8-43.8-50c-17-29.1-26.8-62.9-26.8-92.9C347.3,131.4,371.1,110.4,387.5,107.6z"/>
	</g>
</g>
<g id="_x30_i6wGC.tif">
	
		<image style="overflow:visible;" width="227" height="84" id="Layer_0_2_" xlink:href="382910C5B6F9B5D2.png"  transform="matrix(1 0 0 1 0 -117.121)">
	</image>
</g>
</svg>
