<?xml version="1.0" encoding="utf-8"?>
<!-- Generator: Adobe Illustrator 23.0.4, SVG Export Plug-In . SVG Version: 6.00 Build 0)  -->
<svg version="1.1" id="Capa_1" xmlns="http://www.w3.org/2000/svg" xmlns:xlink="http://www.w3.org/1999/xlink" x="0px" y="0px"
	 viewBox="0 0 1057.3 824.3" style="enable-background:new 0 0 1057.3 824.3;" xml:space="preserve">
<style type="text/css">
	.st0{fill:#F79B35;}
	.st1{fill:#BF0D3E;}
</style>
<title>Escuela de Agronomía y Veterinaria</title>
<g id="efXdAO.tif">
	
		<image style="overflow:visible;" width="256" height="88" id="Layer_0_1_" xlink:href="3820A5B8FCEB6186.png"  transform="matrix(1 0 0 1 35.948 -136.5253)">
	</image>
</g>
<g id="Layer_2">
	<g id="Layer_1-2">
		<path class="st0" d="M554.3,447v0.4h1.8c1.4,0,2.8-0.4,4.1-1.1c52.5-30.2,113.4-42.3,173.4-34.6c4.5,0.9,8.9-2,9.8-6.4
			c0.9-4.5-2-8.9-6.4-9.8c-0.4-0.1-0.8-0.1-1.2-0.2c-63.6-8.2-128.2,4.7-183.7,36.7c-3.9,2.3-5.2,7.3-2.9,11.2
			C550.2,445.1,552.1,446.5,554.3,447L554.3,447z"/>
		<path class="st0" d="M735.7,444.6c-63.6-8.2-128.2,4.7-183.7,36.7c-3.9,2.3-5.2,7.3-2.9,11.2c1.1,1.9,3,3.3,5.2,3.8v0.4h1.8
			c1.4,0,2.8-0.4,4.1-1.1c52.4-30.2,113.3-42.4,173.4-34.6c4.5,0.6,8.7-2.6,9.3-7.1C743.4,449.4,740.2,445.2,735.7,444.6z"/>
		<path class="st0" d="M735.7,494.6c-63.6-8.1-128.2,4.8-183.7,36.9c-3.9,2.3-5.2,7.4-2.9,11.3c1.5,2.5,4.1,4,7,4h1.8v-0.3
			c0.8-0.2,1.6-0.5,2.3-0.9c52.5-30.2,113.4-42.3,173.4-34.6c4.5,0.9,8.8-2,9.7-6.5s-2-8.8-6.5-9.7
			C736.4,494.7,736.1,494.6,735.7,494.6z"/>
		<path class="st0" d="M735.7,544c-63.6-8.2-128.1,4.7-183.7,36.7c-3.9,2.3-5.2,7.3-2.9,11.2c1.1,1.9,3,3.3,5.2,3.8v0.7h1.8
			c1.4,0,2.9-0.4,4.1-1.1c52.4-30.3,113.3-42.6,173.4-34.9c4.6,0.3,8.5-3.2,8.8-7.8C742.6,548.5,739.8,544.8,735.7,544z"/>
		<path class="st0" d="M735.7,594c-63.6-8.1-128.2,4.8-183.7,36.9c-3.9,2.3-5.2,7.4-2.9,11.3c1.5,2.5,4.1,4,7,4l0,0
			c1.4,0,2.8-0.4,4.1-1.1c52.5-30.2,113.4-42.4,173.4-34.6c4.6,0.3,8.5-3.2,8.8-7.8C742.6,598.5,739.8,594.8,735.7,594L735.7,594z"
			/>
		<path class="st0" d="M735.7,643.8c-63.6-8.2-128.2,4.8-183.7,36.8c-3.9,2.3-5.2,7.3-2.9,11.2c1.1,1.9,3,3.3,5.2,3.8v0.3h1.8
			c1.4,0,2.8-0.4,4.1-1.1c52.4-30.2,113.3-42.4,173.4-34.6c4.6,0.3,8.5-3.2,8.8-7.8C742.6,648.3,739.7,644.6,735.7,643.8
			L735.7,643.8z"/>
		<path class="st1" d="M833.9,435.3h-23.3v-25.9c0-4.5-3.7-8.2-8.2-8.2h-27.8V362c0.1-3.9-2.6-7.3-6.4-8.2l-7.3-1.6
			c-78.1-17.4-159.8-1.8-226.1,42.9l-7.9,5.4c-25.3-4.2-46.7-21-56.7-44.6l-28.8-68.2c-1.3-4.3-5.9-6.8-10.2-5.5
			c-3.9,1.2-6.4,5-5.8,9v97.1c-26.9-11-51-27.7-70.8-49L321.2,303c-3.1-3.3-8.3-3.5-11.6-0.4c-1.7,1.5-2.6,3.7-2.6,6v92.5h-51.1
			c-4.5,0-8.2,3.7-8.2,8.2v25.9h-24.3c-4.5,0-8.2,3.7-8.2,8.2v365.2c0,4.5,3.7,8.2,8.2,8.2h610.5c4.5,0,8.2-3.7,8.2-8.2v-365
			C842.1,439,838.5,435.4,833.9,435.3z M559.1,777h243.5c4.5,0,8.2-3.7,8.2-8.2V452.2h15l-0.1,348.4h-254
			C570,791.6,565.6,783.4,559.1,777z M500.5,800.3c3.6-11.9,14.7-20.1,27.2-20h1.8v-0.1c11.8,0.8,21.9,8.8,25.4,20.1H500.5z
			 M256,777h214.3v-0.2c8,1.1,16.2,1.8,24.3,2.1c-5.6,6.1-9.4,13.7-10.9,21.9h-252v-349h16.1v317C247.8,773.3,251.4,777,256,777z
			 M309.3,673.3l33.9,36.4c19.9,21.6,44,38.9,70.9,50.9H264.2v-343h42.9v250.1C307.1,669.8,307.9,671.8,309.3,673.3z M426.2,653.2
			l29,68.4c7,16.4,18.6,30.3,33.4,40.3c-51-3.1-98.9-25.8-133.7-63.3l-31.4-34l-0.1-335l19.9,21c22.8,24.6,51,43.5,82.3,55.4v244.1
			C425.5,651.1,425.7,652.2,426.2,653.2L426.2,653.2z M520.4,758.6c-22.5-6-41-22-50.1-43.4l-28.4-66.9v-317l13.2,31.2
			c11.7,27.5,36,47.5,65.2,53.8L520.4,758.6L520.4,758.6z M654.3,724.7c36.6-6,74.1-4.5,110.1,4.4c4.4,1.1,8.8-1.6,9.9-6
			c0.2-0.7,0.3-1.4,0.2-2.2V417.6h19.6v343H556.8C586.7,742.5,619.8,730.3,654.3,724.7z M758.2,710.8
			c-75.1-15.8-153.5-1.3-217.9,40.4l-2.9,1.9V413.5l6.7-4.9c62.5-42.2,139.6-56.8,213.2-40.5l0.8,0.2L758.2,710.8L758.2,710.8z"/>
		<path class="st0" d="M469.8,207.9c1.1,0.9,1.7,2.2,1.8,3.6v64.4c0,8.7,6.7,16,15.4,16.8l86.2,0.2h1.9c9.3-0.1,16.9-7.6,17.1-16.9
			v-36.5h26.6c13.8,0,25-11.2,25-25v-35.8h9.6c10.7,0.1,19.4-8.5,19.5-19.1c0-3.9-1.1-7.7-3.2-10.9l-25.3-38.4
			c-0.7-1.3-1.1-2.7-1.2-4.2c-5.2-56.2-51.3-98.6-108-98.6c-60,0-108.5,48.7-108.5,108.1C426.7,150.2,442.7,184.4,469.8,207.9z
			 M535.3,23.2c48,0,87.3,36,91.6,84c0.3,4.1,1.5,8,3.6,11.5l25.7,39c0.5,1,0.5,2.1,0,3c-0.6,1-1.6,1.6-2.8,1.5h-14.8
			c-6.3,0-11.4,5.1-11.4,11.4v40.9c0,4.7-3.8,8.5-8.4,8.5l0,0h-30.5c-7.1,0-12.9,5.7-13,12.8c0,0.1,0,0.1,0,0.2l-0.6,41.1l-86.5,0.2
			v-65.8c-0.1-6.2-2.8-12-7.5-16c-23.3-19.9-37.5-50.5-37.5-80.1c-0.1-50.8,41-92,91.7-92.2C535.1,23.2,535.2,23.2,535.3,23.2z"/>
		<path class="st0" d="M583.4,309.1c-0.2-3.7-3.2-6.7-6.9-6.9h-90.3c-3.8,0-6.9,3.1-6.9,6.9s3.1,6.9,6.9,6.9h90.3
			c3.6,0.2,6.7-2.5,6.9-6.1C583.4,309.7,583.4,309.4,583.4,309.1z"/>
		<path class="st0" d="M502,325c-3.8,0-6.9,3.1-6.9,6.9s3.1,6.9,6.9,6.9h58.6c3.6,0.2,6.7-2.5,6.9-6.1c0-0.3,0-0.5,0-0.8
			c0-3.8-3.1-6.9-6.9-6.9H502z"/>
	</g>
</g>
</svg>
